<svg id="Layer_1" viewBox="0 0 24 24" xmlns="http://www.w3.org/2000/svg" data-name="Layer 1"><path d="m22.979 19.705c-.031-.145-.785-3.598-4.176-9.322-3.264-5.51-5.855-7.88-6.14-8.132-.378-.335-.947-.335-1.325 0-.285.252-2.876 2.621-6.14 8.132-3.391 5.724-4.146 9.178-4.177 9.322-.105.5.183.999.668 1.157.143.046 3.562 1.138 10.311 1.138s10.168-1.091 10.311-1.138c.485-.159.773-.658.668-1.157zm-11.979-10.705c0-.552.448-1 1-1s1 .448 1 1v5c0 .552-.448 1-1 1s-1-.448-1-1zm1 9.005c-.555 0-1.003-.448-1.003-1.003s.448-1.003 1.003-1.003 1.003.448 1.003 1.003-.448 1.003-1.003 1.003z"/></svg>